<?xml version="1.0" encoding="UTF-8"?>
<svg xmlns="http://www.w3.org/2000/svg" width="1008" height="721">
    <g>
        <rect fill="#ffff7f" stroke="#000000" x="260" y="223" width="77" height="38" id="90d80acd4f1eea1096a665f18dfdb35d"/>
        <rect fill="#ffff7f" stroke="#000000" x="398" y="229" width="84" height="32" id="3a93965f70767c957e945a2699f692f2"/>
        <rect fill="#ffff7f" stroke="#000000" x="179" y="281" width="199" height="44" id="12726bc695bc6d05fbb707add36db7e9"/>
        <rect fill="#ffff7f" stroke="#000000" x="288" y="336" width="94" height="31" id="2427dfb3a7c0c69177ec3a04dfdd2608"/>
        <rect fill="#ffff7f" stroke="#000000" x="277" y="372" width="96" height="25" id="d2fbf8dec0ab22e5ac94c650a7d23dc4"/>
        <rect fill="#ffff7f" stroke="#000000" x="464" y="340" width="86" height="24" id="4b12c4685c8f225b8cc3bc6487301c03"/>
        <rect fill="#ffff7f" stroke="#000000" x="232" y="408" width="202" height="31" id="eaa8f0f17d328b053b78e285ff376f9c"/>
        <rect fill="#ffff7f" stroke="#000000" x="424" y="439" width="74" height="34" id="5535fd7456e02c4094be60d93226c8b6"/>
        <rect fill="#ffff7f" stroke="#000000" x="283" y="513" width="67" height="30" id="e89fbffe055089d6661825b212c03db1"/>
        <rect fill="#ffff7f" stroke="#000000" x="291" y="582" width="55" height="32" id="1ff51d4ec6dbb7c92542aa4724ccbe80"/>
        <rect fill="#ffff7f" stroke="#000000" x="448" y="591" width="88" height="27" id="99009041188b7e66d0f55e0eb648d685"/>
        <rect fill="#ffff7f" stroke="#000000" x="228" y="663" width="85" height="38" id="71b7daf22bf56831840546580248042d"/>
        <rect fill="#ffff7f" stroke="#000000" x="831" y="666" width="114" height="36" id="a84ed8b51f204c17ea28613715981e9a"/>
        <rect fill="#ffff7f" stroke="#000000" x="585" y="588" width="69" height="39" id="538f80d9ea9b5e2eab7562062ddfd8d5"/>
        <rect fill="#ffff7f" stroke="#000000" x="668" y="510" width="73" height="37" id="d6cb229c45cedc04fcc12e3f9205919a"/>
        <rect fill="#ffff7f" stroke="#000000" x="593" y="333" width="110" height="50" id="abccc0d7d53611c46f21750cf1b5a7d4"/>
        <rect fill="#ffff7f" stroke="#000000" x="694" y="289" width="157" height="42" id="863adca3f93cabe9a49b9bb8deddcd69"/>
        <rect fill="#ffff7f" stroke="#000000" x="698" y="227" width="90" height="36" id="7b970dfe3480775d19aa8b23ecb6edbd"/>
        <rect fill="#ffff7f" stroke="#000000" x="810" y="405" width="51" height="34" id="a32969a63ed744a8279c537c0b58411b"/>
    </g>
</svg>
