<?xml version="1.0" encoding="UTF-8"?>
<svg xmlns="http://www.w3.org/2000/svg" width="1260" height="793">
    <g>
        <rect fill="#ff5500" stroke="#000000" x="28" y="166" width="120" height="42" id="232357390293932237ac4e542914f0aa"/>
        <rect fill="#ff5500" stroke="#000000" x="27" y="319" width="113" height="37" id="ca87b0b8d2f3cb742590f406f2dbb17b"/>
        <rect fill="#ff5500" stroke="#000000" x="33" y="558" width="59" height="35" id="c554adec70604001c38559353b760d78"/>
        <rect fill="#ff5500" stroke="#000000" x="25" y="656" width="71" height="32" id="b9da2c795b3dc42451c5a42afb86b723"/>
        <rect fill="#ff5500" stroke="#000000" x="559" y="96" width="142" height="41" id="c504fc6446d4b40c414eda9fce45b75f"/>
        <rect fill="#ff5500" stroke="#000000" x="545" y="185" width="158" height="44" id="7737b885b50c5845c1502f21224a34a2"/>
        <rect fill="#ff5500" stroke="#000000" x="557" y="346" width="138" height="33" id="c42db9cd2f8e54c12e50de48315dd3a3"/>
        <rect fill="#ff5500" stroke="#000000" x="553" y="583" width="121" height="45" id="a45831e2dcd94e0313cb43a861dd1a7c"/>
        <rect fill="#ff5500" stroke="#000000" x="541" y="698" width="132" height="35" id="172108a63b270de495352661acd40591"/>
        <rect fill="#ff5500" stroke="#000000" x="1138" y="128" width="101" height="31" id="f20924bc8170eb1db4f016044359e2c4"/>
        <rect fill="#ff5500" stroke="#000000" x="1132" y="276" width="87" height="36" id="6e7fe6b00ea20e6fc0c1eab2bba3a759"/>
        <rect fill="#ff5500" stroke="#000000" x="1150" y="473" width="66" height="42" id="34b3ee03e6daa0e25df29be7043e6f51"/>
        <rect fill="#ff5500" stroke="#000000" x="1134" y="631" width="79" height="55" id="1b2ea19eb6c45554a1830c64a213c965"/>
        <rect fill="#ff5500" stroke="#000000" x="549" y="448" width="132" height="36" id="a90cb55d7bee340129936bb9a72369c1"/>
        <rect fill="#ff5500" stroke="#000000" x="1134" y="735" width="81" height="59" id="1516c490a5deeb1d6dbd02407e0c49b3"/>
    </g>
</svg>
