<?xml version="1.0" encoding="UTF-8"?>
<svg xmlns="http://www.w3.org/2000/svg" width="725" height="749">
    <g>
        <rect fill="#aaaaff" stroke="#000000" x="121" y="81" width="95" height="52" id="82a213797c55c5ea8b1b4a8db35f4aa8"/>
        <rect fill="#aaaaff" stroke="#000000" x="337" y="87" width="146" height="41" id="b3b83d68f15139ae13878a9c0a2dee58"/>
        <rect fill="#aaaaff" stroke="#000000" x="304" y="148" width="78" height="36" id="a9c2ef5e332a072a06e1c1d9950e4f0e"/>
        <rect fill="#aaaaff" stroke="#000000" x="117" y="201" width="76" height="36" id="7290db949cf3ec4696326ae08e1de9bc"/>
        <rect fill="#aaaaff" stroke="#000000" x="303" y="192" width="100" height="48" id="9e0b00dc3dd7115b2b1d53ef53d81076"/>
        <rect fill="#aaaaff" stroke="#000000" x="508" y="197" width="68" height="40" id="af0584d1bbdff417aa8f52a5abeda62b"/>
        <rect fill="#aaaaff" stroke="#000000" x="118" y="250" width="64" height="41" id="b3f0521236a3e56baf5864e8e7c35ae5"/>
        <rect fill="#aaaaff" stroke="#000000" x="276" y="251" width="63" height="42" id="c9c1fb80b34eeac76b917517e9bcf8c5"/>
        <rect fill="#aaaaff" stroke="#000000" x="451" y="257" width="73" height="37" id="f3b312d34b5f5d42cbb94c857408380a"/>
        <rect fill="#aaaaff" stroke="#000000" x="333" y="310" width="48" height="34" id="dd7f7396c7c29e8e2c993dc4105c510e"/>
        <rect fill="#aaaaff" stroke="#000000" x="402" y="310" width="186" height="44" id="20d80a7251f8110e1543271af5d8c310"/>
        <rect fill="#aaaaff" stroke="#000000" x="341" y="357" width="79" height="45" id="0b57804a39d65434ab2a50d07d5b32bd"/>
        <rect fill="#aaaaff" stroke="#000000" x="208" y="411" width="43" height="38" id="6a9b5ece67b245d988cd4818b5cf8bcb"/>
        <rect fill="#aaaaff" stroke="#000000" x="262" y="421" width="31" height="33" id="3f04c679f116eb017bffeea151a2fda9"/>
        <rect fill="#aaaaff" stroke="#000000" x="209" y="468" width="70" height="44" id="9a019916d23ad596a53d0c7dc9556555"/>
        <rect fill="#aaaaff" stroke="#000000" x="240" y="529" width="77" height="34" id="05fcc2070fd52bd38988788336105d50"/>
        <rect fill="#aaaaff" stroke="#000000" x="235" y="574" width="80" height="39" id="20bef36e9aac388af65d54f09640c001"/>
        <rect fill="#aaaaff" stroke="#000000" x="424" y="578" width="71" height="41" id="50987379152383cd04c591ceeb339a0c"/>
        <rect fill="#aaaaff" stroke="#000000" x="128" y="628" width="60" height="41" id="2da9360554205d324850bc0fe681e981"/>
    </g>
</svg>
