<?xml version="1.0" encoding="UTF-8"?>
<svg xmlns="http://www.w3.org/2000/svg" width="1076" height="696">
    <g>
        <rect fill="#ffff7f" stroke="#000000" x="233" y="127" width="113" height="44" id="82e0d2680cd2a22db69af2ca53c4e88d"/>
        <rect fill="#ffff7f" stroke="#000000" x="188" y="333" width="28" height="32" id="f4f02e6ab777ee43030439a35584cea6"/>
        <rect fill="#ffff7f" stroke="#000000" x="244" y="331" width="69" height="31" id="e8a8386688d7d3d67a43734d8f1e4e41"/>
        <rect fill="#ffff7f" stroke="#000000" x="339" y="332" width="107" height="33" id="4026aff6b26029c4f0040561f07edf55"/>
        <rect fill="#ffff7f" stroke="#000000" x="344" y="386" width="74" height="40" id="e561b7f618f997ff87092f1bc235427a"/>
        <rect fill="#ffff7f" stroke="#000000" x="342" y="432" width="77" height="42" id="7ccc2df705e0a78c70e39193525d43ba"/>
        <rect fill="#ffff7f" stroke="#000000" x="172" y="588" width="114" height="38" id="779a81bc9b9da3f38d0cd4b705c16d8e"/>
        <rect fill="#ffff7f" stroke="#000000" x="195" y="641" width="144" height="41" id="6d502eea972cc60b10dffebe238df742"/>
        <rect fill="#ffff7f" stroke="#000000" x="651" y="130" width="120" height="33" id="de298b5cd63bb6141d5142397d8d4ac8"/>
        <rect fill="#ffff7f" stroke="#000000" x="533" y="226" width="86" height="34" id="e8dfa5b37e9ebe9173a210fffeb947ea"/>
        <rect fill="#ffff7f" stroke="#000000" x="712" y="174" width="53" height="39" id="e8a526bfcccdfc89cc2c45401af90df6"/>
        <rect fill="#ffff7f" stroke="#000000" x="469" y="329" width="75" height="30" id="cabfb0380f081f1b1358dac66ea39b76"/>
        <rect fill="#ffff7f" stroke="#000000" x="565" y="337" width="23" height="27" id="cb72ad79cb2e609c3843f0ca91f3ad27"/>
        <rect fill="#ffff7f" stroke="#000000" x="618" y="323" width="100" height="51" id="03ed824b20d10526496726bee7ab0357"/>
        <rect fill="#ffff7f" stroke="#000000" x="536" y="388" width="50" height="31" id="18d5c87efa391c0beea1f52d4dad80ef"/>
        <rect fill="#ffff7f" stroke="#000000" x="621" y="379" width="64" height="45" id="6e40ad0c7c85dd07edffa123e009532a"/>
        <rect fill="#ffff7f" stroke="#000000" x="562" y="555" width="73" height="43" id="1ce114f2ee8d36ca6dded7fa461e7de2"/>
        <rect fill="#ffff7f" stroke="#000000" x="567" y="600" width="148" height="44" id="b92a93aeae8ca5facad9fb784269e64b"/>
        <rect fill="#ffff7f" stroke="#000000" x="893" y="532" width="115" height="37" id="bee59e61007fd2cfddf948540868e75a"/>
        <rect fill="#ffff7f" stroke="#000000" x="824" y="577" width="226" height="36" id="984fe6446c6e5d9a33a04f656fc1160e"/>
        <rect fill="#ffff7f" stroke="#000000" x="896" y="641" width="101" height="36" id="5ff49a336471352242f0268485fabfe6"/>
        <rect fill="#ffff7f" stroke="#000000" x="926" y="321" width="23" height="32" id="c8ec834e55d12d32280e03651bdac79f"/>
        <rect fill="#ffff7f" stroke="#000000" x="973" y="316" width="73" height="46" id="3858e61c37523435f0bba20baa938bdd"/>
        <rect fill="#ffff7f" stroke="#000000" x="881" y="352" width="101" height="32" id="19d246d9e584b62396b3e536433cbd51"/>
        <rect fill="#ffff7f" stroke="#000000" x="914" y="426" width="122" height="38" id="3945bb202c8f8ea842b6756a6a769943"/>
        <rect fill="#ffff7f" stroke="#000000" x="884" y="142" width="86" height="38" id="890bcdfe85abd03cebfe9dd33fb9de97"/>
        <rect fill="#ffff7f" stroke="#000000" x="824" y="203" width="90" height="38" id="5338e9473d483c6eeb9e43a8dd40e23d"/>
    </g>
</svg>
