<?xml version="1.0" encoding="UTF-8"?>
<svg xmlns="http://www.w3.org/2000/svg" width="464" height="681">
    <g>
        <rect fill="#ff5500" stroke="#000000" x="33" y="29" width="54" height="21" id="840763e2163e57e9260cf10fb3921906"/>
        <rect fill="#ff5500" stroke="#000000" x="57" y="43" width="98" height="30" id="644cfaed2e86a95e041e69a62ebc8850"/>
        <rect fill="#ff5500" stroke="#000000" x="175" y="93" width="49" height="28" id="63d19c655f3deebd058764695763ed4d"/>
        <rect fill="#ff5500" stroke="#000000" x="75" y="190" width="45" height="19" id="8d5139520e62886f66fc0455079586ef"/>
        <rect fill="#ff5500" stroke="#000000" x="82" y="223" width="51" height="24" id="3e893bc01845f561a3f4910c6a60539d"/>
        <rect fill="#ff5500" stroke="#000000" x="89" y="254" width="37" height="16" id="6850c24040a42e28626e04a8ce2cb8b9"/>
        <rect fill="#ff5500" stroke="#000000" x="98" y="277" width="59" height="23" id="52d968e71fcf7110573cab9ceac71e0d"/>
        <rect fill="#ff5500" stroke="#000000" x="112" y="307" width="64" height="15" id="8aaca624b0193db7cd7063e66fc14b64"/>
        <rect fill="#ff5500" stroke="#000000" x="62" y="408" width="175" height="35" id="7adf784c945ed2293d0d48f65539d4e2"/>
        <rect fill="#ff5500" stroke="#000000" x="83" y="448" width="88" height="26" id="6399b9c19e406366f28b7a464a3a5ffb"/>
        <rect fill="#ff5500" stroke="#000000" x="99" y="478" width="161" height="26" id="19482e749b0c98f88339f0fdd5a2a82c"/>
        <rect fill="#ff5500" stroke="#000000" x="175" y="559" width="68" height="27" id="639044d6eb4df4ddeb698518a687ab0c"/>
        <rect fill="#ff5500" stroke="#000000" x="179" y="646" width="73" height="24" id="ac3bcb5839735b4ca3a552a0f600c5e2"/>
        <rect fill="#ff5500" stroke="#000000" x="267" y="639" width="70" height="30" id="3ef82706b2d40f5b7dea917313f70e58"/>
        <rect fill="#ff5500" stroke="#000000" x="343" y="637" width="74" height="25" id="cdc4243b76de48c6f4bee40a0e8c43d9"/>
    </g>
</svg>
